<svg class="rich-terminal" viewBox="0 0 994 635.5999999999999" xmlns="http://www.w3.org/2000/svg">
    <!-- Generated with Rich https://www.textualize.io -->
    <style>

    @font-face {
        font-family: "Fira Code";
        src: local("FiraCode-Regular"),
                url("https://cdnjs.cloudflare.com/ajax/libs/firacode/6.2.0/woff2/FiraCode-Regular.woff2") format("woff2"),
                url("https://cdnjs.cloudflare.com/ajax/libs/firacode/6.2.0/woff/FiraCode-Regular.woff") format("woff");
        font-style: normal;
        font-weight: 400;
    }
    @font-face {
        font-family: "Fira Code";
        src: local("FiraCode-Bold"),
                url("https://cdnjs.cloudflare.com/ajax/libs/firacode/6.2.0/woff2/FiraCode-Bold.woff2") format("woff2"),
                url("https://cdnjs.cloudflare.com/ajax/libs/firacode/6.2.0/woff/FiraCode-Bold.woff") format("woff");
        font-style: bold;
        font-weight: 700;
    }

    .terminal-1598979857-matrix {
        font-family: Fira Code, monospace;
        font-size: 20px;
        line-height: 24.4px;
        font-variant-east-asian: full-width;
    }

    .terminal-1598979857-title {
        font-size: 18px;
        font-weight: bold;
        font-family: arial;
    }

    .terminal-1598979857-r1 { fill: #fbf1c7 }
.terminal-1598979857-r2 { fill: #7c7867 }
.terminal-1598979857-r3 { fill: #646155 }
.terminal-1598979857-r4 { fill: #c5c8c6 }
.terminal-1598979857-r5 { fill: #3e4a45 }
.terminal-1598979857-r6 { fill: #7b632a;font-weight: bold }
.terminal-1598979857-r7 { fill: #737373 }
.terminal-1598979857-r8 { fill: #737373;font-weight: bold }
.terminal-1598979857-r9 { fill: #5c5c5b }
.terminal-1598979857-r10 { fill: #5e5e5d }
.terminal-1598979857-r11 { fill: #282828;font-weight: bold }
.terminal-1598979857-r12 { fill: #1f1c1a }
.terminal-1598979857-r13 { fill: #00ff00 }
.terminal-1598979857-r14 { fill: #000000 }
.terminal-1598979857-r15 { fill: #282828 }
.terminal-1598979857-r16 { fill: #878381 }
.terminal-1598979857-r17 { fill: #fbf1c7;font-weight: bold }
.terminal-1598979857-r18 { fill: #3e3834 }
.terminal-1598979857-r19 { fill: #c1bc9e }
.terminal-1598979857-r20 { fill: #bab295 }
.terminal-1598979857-r21 { fill: #181818 }
.terminal-1598979857-r22 { fill: #7c632a;font-weight: bold }
.terminal-1598979857-r23 { fill: #45423e }
    </style>

    <defs>
    <clipPath id="terminal-1598979857-clip-terminal">
      <rect x="0" y="0" width="975.0" height="584.5999999999999" />
    </clipPath>
    <clipPath id="terminal-1598979857-line-0">
    <rect x="0" y="1.5" width="976" height="24.65"/>
            </clipPath>
<clipPath id="terminal-1598979857-line-1">
    <rect x="0" y="25.9" width="976" height="24.65"/>
            </clipPath>
<clipPath id="terminal-1598979857-line-2">
    <rect x="0" y="50.3" width="976" height="24.65"/>
            </clipPath>
<clipPath id="terminal-1598979857-line-3">
    <rect x="0" y="74.7" width="976" height="24.65"/>
            </clipPath>
<clipPath id="terminal-1598979857-line-4">
    <rect x="0" y="99.1" width="976" height="24.65"/>
            </clipPath>
<clipPath id="terminal-1598979857-line-5">
    <rect x="0" y="123.5" width="976" height="24.65"/>
            </clipPath>
<clipPath id="terminal-1598979857-line-6">
    <rect x="0" y="147.9" width="976" height="24.65"/>
            </clipPath>
<clipPath id="terminal-1598979857-line-7">
    <rect x="0" y="172.3" width="976" height="24.65"/>
            </clipPath>
<clipPath id="terminal-1598979857-line-8">
    <rect x="0" y="196.7" width="976" height="24.65"/>
            </clipPath>
<clipPath id="terminal-1598979857-line-9">
    <rect x="0" y="221.1" width="976" height="24.65"/>
            </clipPath>
<clipPath id="terminal-1598979857-line-10">
    <rect x="0" y="245.5" width="976" height="24.65"/>
            </clipPath>
<clipPath id="terminal-1598979857-line-11">
    <rect x="0" y="269.9" width="976" height="24.65"/>
            </clipPath>
<clipPath id="terminal-1598979857-line-12">
    <rect x="0" y="294.3" width="976" height="24.65"/>
            </clipPath>
<clipPath id="terminal-1598979857-line-13">
    <rect x="0" y="318.7" width="976" height="24.65"/>
            </clipPath>
<clipPath id="terminal-1598979857-line-14">
    <rect x="0" y="343.1" width="976" height="24.65"/>
            </clipPath>
<clipPath id="terminal-1598979857-line-15">
    <rect x="0" y="367.5" width="976" height="24.65"/>
            </clipPath>
<clipPath id="terminal-1598979857-line-16">
    <rect x="0" y="391.9" width="976" height="24.65"/>
            </clipPath>
<clipPath id="terminal-1598979857-line-17">
    <rect x="0" y="416.3" width="976" height="24.65"/>
            </clipPath>
<clipPath id="terminal-1598979857-line-18">
    <rect x="0" y="440.7" width="976" height="24.65"/>
            </clipPath>
<clipPath id="terminal-1598979857-line-19">
    <rect x="0" y="465.1" width="976" height="24.65"/>
            </clipPath>
<clipPath id="terminal-1598979857-line-20">
    <rect x="0" y="489.5" width="976" height="24.65"/>
            </clipPath>
<clipPath id="terminal-1598979857-line-21">
    <rect x="0" y="513.9" width="976" height="24.65"/>
            </clipPath>
<clipPath id="terminal-1598979857-line-22">
    <rect x="0" y="538.3" width="976" height="24.65"/>
            </clipPath>
    </defs>

    <rect fill="#292929" stroke="rgba(255,255,255,0.35)" stroke-width="1" x="1" y="1" width="992" height="633.6" rx="8"/><text class="terminal-1598979857-title" fill="#c5c8c6" text-anchor="middle" x="496" y="27">agent-toolkit-tui</text>
            <g transform="translate(26,22)">
            <circle cx="0" cy="0" r="7" fill="#ff5f57"/>
            <circle cx="22" cy="0" r="7" fill="#febc2e"/>
            <circle cx="44" cy="0" r="7" fill="#28c840"/>
            </g>
        
    <g transform="translate(9, 41)" clip-path="url(#terminal-1598979857-clip-terminal)">
    <rect fill="#383533" x="0" y="1.5" width="12.2" height="24.65" shape-rendering="crispEdges"/><rect fill="#383533" x="12.2" y="1.5" width="12.2" height="24.65" shape-rendering="crispEdges"/><rect fill="#383533" x="24.4" y="1.5" width="61" height="24.65" shape-rendering="crispEdges"/><rect fill="#383533" x="85.4" y="1.5" width="12.2" height="24.65" shape-rendering="crispEdges"/><rect fill="#383533" x="97.6" y="1.5" width="219.6" height="24.65" shape-rendering="crispEdges"/><rect fill="#383533" x="317.2" y="1.5" width="207.4" height="24.65" shape-rendering="crispEdges"/><rect fill="#383533" x="524.6" y="1.5" width="36.6" height="24.65" shape-rendering="crispEdges"/><rect fill="#383533" x="561.2" y="1.5" width="73.2" height="24.65" shape-rendering="crispEdges"/><rect fill="#383533" x="634.4" y="1.5" width="219.6" height="24.65" shape-rendering="crispEdges"/><rect fill="#383533" x="854" y="1.5" width="12.2" height="24.65" shape-rendering="crispEdges"/><rect fill="#383533" x="866.2" y="1.5" width="0" height="24.65" shape-rendering="crispEdges"/><rect fill="#383533" x="866.2" y="1.5" width="97.6" height="24.65" shape-rendering="crispEdges"/><rect fill="#383533" x="963.8" y="1.5" width="12.2" height="24.65" shape-rendering="crispEdges"/><rect fill="#383533" x="0" y="25.9" width="280.6" height="24.65" shape-rendering="crispEdges"/><rect fill="#302e2d" x="280.6" y="25.9" width="12.2" height="24.65" shape-rendering="crispEdges"/><rect fill="#302e2d" x="292.8" y="25.9" width="683.2" height="24.65" shape-rendering="crispEdges"/><rect fill="#383533" x="0" y="50.3" width="24.4" height="24.65" shape-rendering="crispEdges"/><rect fill="#383533" x="24.4" y="50.3" width="134.2" height="24.65" shape-rendering="crispEdges"/><rect fill="#383533" x="158.6" y="50.3" width="97.6" height="24.65" shape-rendering="crispEdges"/><rect fill="#383533" x="256.2" y="50.3" width="24.4" height="24.65" shape-rendering="crispEdges"/><rect fill="#302e2d" x="280.6" y="50.3" width="12.2" height="24.65" shape-rendering="crispEdges"/><rect fill="#302e2d" x="292.8" y="50.3" width="36.6" height="24.65" shape-rendering="crispEdges"/><rect fill="#302e2d" x="329.4" y="50.3" width="24.4" height="24.65" shape-rendering="crispEdges"/><rect fill="#302e2d" x="353.8" y="50.3" width="73.2" height="24.65" shape-rendering="crispEdges"/><rect fill="#302e2d" x="427" y="50.3" width="36.6" height="24.65" shape-rendering="crispEdges"/><rect fill="#302e2d" x="463.6" y="50.3" width="12.2" height="24.65" shape-rendering="crispEdges"/><rect fill="#302e2d" x="475.8" y="50.3" width="61" height="24.65" shape-rendering="crispEdges"/><rect fill="#302e2d" x="536.8" y="50.3" width="61" height="24.65" shape-rendering="crispEdges"/><rect fill="#302e2d" x="597.8" y="50.3" width="24.4" height="24.65" shape-rendering="crispEdges"/><rect fill="#302e2d" x="622.2" y="50.3" width="73.2" height="24.65" shape-rendering="crispEdges"/><rect fill="#302e2d" x="695.4" y="50.3" width="12.2" height="24.65" shape-rendering="crispEdges"/><rect fill="#7b632a" x="707.6" y="50.3" width="12.2" height="24.65" shape-rendering="crispEdges"/><rect fill="#7b632a" x="719.8" y="50.3" width="12.2" height="24.65" shape-rendering="crispEdges"/><rect fill="#7b632a" x="732" y="50.3" width="85.4" height="24.65" shape-rendering="crispEdges"/><rect fill="#7b632a" x="817.4" y="50.3" width="12.2" height="24.65" shape-rendering="crispEdges"/><rect fill="#302e2d" x="829.6" y="50.3" width="12.2" height="24.65" shape-rendering="crispEdges"/><rect fill="#302e2d" x="841.8" y="50.3" width="12.2" height="24.65" shape-rendering="crispEdges"/><rect fill="#302e2d" x="854" y="50.3" width="73.2" height="24.65" shape-rendering="crispEdges"/><rect fill="#302e2d" x="927.2" y="50.3" width="12.2" height="24.65" shape-rendering="crispEdges"/><rect fill="#302e2d" x="939.4" y="50.3" width="36.6" height="24.65" shape-rendering="crispEdges"/><rect fill="#3e3834" x="0" y="74.7" width="12.2" height="24.65" shape-rendering="crispEdges"/><rect fill="#3e3834" x="12.2" y="74.7" width="951.6" height="24.65" shape-rendering="crispEdges"/><rect fill="#3e3834" x="963.8" y="74.7" width="12.2" height="24.65" shape-rendering="crispEdges"/><rect fill="#3e3834" x="0" y="99.1" width="12.2" height="24.65" shape-rendering="crispEdges"/><rect fill="#3e3834" x="12.2" y="99.1" width="36.6" height="24.65" shape-rendering="crispEdges"/><rect fill="#3e3834" x="48.8" y="99.1" width="12.2" height="24.65" shape-rendering="crispEdges"/><rect fill="#3e3834" x="61" y="99.1" width="890.6" height="24.65" shape-rendering="crispEdges"/><rect fill="#3e3834" x="951.6" y="99.1" width="12.2" height="24.65" shape-rendering="crispEdges"/><rect fill="#3e3834" x="963.8" y="99.1" width="12.2" height="24.65" shape-rendering="crispEdges"/><rect fill="#3e3834" x="0" y="123.5" width="12.2" height="24.65" shape-rendering="crispEdges"/><rect fill="#3e3834" x="12.2" y="123.5" width="12.2" height="24.65" shape-rendering="crispEdges"/><rect fill="#3e3834" x="24.4" y="123.5" width="24.4" height="24.65" shape-rendering="crispEdges"/><rect fill="#3e3834" x="48.8" y="123.5" width="12.2" height="24.65" shape-rendering="crispEdges"/><rect fill="#fbf1c7" x="61" y="123.5" width="12.2" height="24.65" shape-rendering="crispEdges"/><rect fill="#3e3834" x="73.2" y="123.5" width="207.4" height="24.65" shape-rendering="crispEdges"/><rect fill="#3e3834" x="280.6" y="123.5" width="671" height="24.65" shape-rendering="crispEdges"/><rect fill="#3e3834" x="951.6" y="123.5" width="12.2" height="24.65" shape-rendering="crispEdges"/><rect fill="#3e3834" x="963.8" y="123.5" width="12.2" height="24.65" shape-rendering="crispEdges"/><rect fill="#3e3834" x="0" y="147.9" width="12.2" height="24.65" shape-rendering="crispEdges"/><rect fill="#3e3834" x="12.2" y="147.9" width="12.2" height="24.65" shape-rendering="crispEdges"/><rect fill="#3e3834" x="24.4" y="147.9" width="24.4" height="24.65" shape-rendering="crispEdges"/><rect fill="#3e3834" x="48.8" y="147.9" width="12.2" height="24.65" shape-rendering="crispEdges"/><rect fill="#3e3834" x="61" y="147.9" width="890.6" height="24.65" shape-rendering="crispEdges"/><rect fill="#3e3834" x="951.6" y="147.9" width="12.2" height="24.65" shape-rendering="crispEdges"/><rect fill="#3e3834" x="963.8" y="147.9" width="12.2" height="24.65" shape-rendering="crispEdges"/><rect fill="#3e3834" x="0" y="172.3" width="976" height="24.65" shape-rendering="crispEdges"/><rect fill="#535851" x="0" y="196.7" width="24.4" height="24.65" shape-rendering="crispEdges"/><rect fill="#535851" x="24.4" y="196.7" width="109.8" height="24.65" shape-rendering="crispEdges"/><rect fill="#535851" x="134.2" y="196.7" width="793" height="24.65" shape-rendering="crispEdges"/><rect fill="#535851" x="927.2" y="196.7" width="24.4" height="24.65" shape-rendering="crispEdges"/><rect fill="#43504b" x="951.6" y="196.7" width="24.4" height="24.65" shape-rendering="crispEdges"/><rect fill="#535851" x="0" y="221.1" width="24.4" height="24.65" shape-rendering="crispEdges"/><rect fill="#535851" x="24.4" y="221.1" width="268.4" height="24.65" shape-rendering="crispEdges"/><rect fill="#535851" x="292.8" y="221.1" width="634.4" height="24.65" shape-rendering="crispEdges"/><rect fill="#535851" x="927.2" y="221.1" width="24.4" height="24.65" shape-rendering="crispEdges"/><rect fill="#43504b" x="951.6" y="221.1" width="24.4" height="24.65" shape-rendering="crispEdges"/><rect fill="#3e3834" x="0" y="245.5" width="24.4" height="24.65" shape-rendering="crispEdges"/><rect fill="#3e3834" x="24.4" y="245.5" width="122" height="24.65" shape-rendering="crispEdges"/><rect fill="#3e3834" x="146.4" y="245.5" width="780.8" height="24.65" shape-rendering="crispEdges"/><rect fill="#3e3834" x="927.2" y="245.5" width="24.4" height="24.65" shape-rendering="crispEdges"/><rect fill="#43504b" x="951.6" y="245.5" width="24.4" height="24.65" shape-rendering="crispEdges"/><rect fill="#3e3834" x="0" y="269.9" width="24.4" height="24.65" shape-rendering="crispEdges"/><rect fill="#3e3834" x="24.4" y="269.9" width="280.6" height="24.65" shape-rendering="crispEdges"/><rect fill="#3e3834" x="305" y="269.9" width="622.2" height="24.65" shape-rendering="crispEdges"/><rect fill="#3e3834" x="927.2" y="269.9" width="24.4" height="24.65" shape-rendering="crispEdges"/><rect fill="#43504b" x="951.6" y="269.9" width="24.4" height="24.65" shape-rendering="crispEdges"/><rect fill="#3e3834" x="0" y="294.3" width="24.4" height="24.65" shape-rendering="crispEdges"/><rect fill="#3e3834" x="24.4" y="294.3" width="158.6" height="24.65" shape-rendering="crispEdges"/><rect fill="#3e3834" x="183" y="294.3" width="744.2" height="24.65" shape-rendering="crispEdges"/><rect fill="#3e3834" x="927.2" y="294.3" width="24.4" height="24.65" shape-rendering="crispEdges"/><rect fill="#43504b" x="951.6" y="294.3" width="24.4" height="24.65" shape-rendering="crispEdges"/><rect fill="#3e3834" x="0" y="318.7" width="24.4" height="24.65" shape-rendering="crispEdges"/><rect fill="#3e3834" x="24.4" y="318.7" width="317.2" height="24.65" shape-rendering="crispEdges"/><rect fill="#3e3834" x="341.6" y="318.7" width="585.6" height="24.65" shape-rendering="crispEdges"/><rect fill="#3e3834" x="927.2" y="318.7" width="24.4" height="24.65" shape-rendering="crispEdges"/><rect fill="#181818" x="951.6" y="318.7" width="24.4" height="24.65" shape-rendering="crispEdges"/><rect fill="#3e3834" x="0" y="343.1" width="24.4" height="24.65" shape-rendering="crispEdges"/><rect fill="#3e3834" x="24.4" y="343.1" width="170.8" height="24.65" shape-rendering="crispEdges"/><rect fill="#3e3834" x="195.2" y="343.1" width="732" height="24.65" shape-rendering="crispEdges"/><rect fill="#3e3834" x="927.2" y="343.1" width="24.4" height="24.65" shape-rendering="crispEdges"/><rect fill="#181818" x="951.6" y="343.1" width="24.4" height="24.65" shape-rendering="crispEdges"/><rect fill="#3e3834" x="0" y="367.5" width="24.4" height="24.65" shape-rendering="crispEdges"/><rect fill="#3e3834" x="24.4" y="367.5" width="329.4" height="24.65" shape-rendering="crispEdges"/><rect fill="#3e3834" x="353.8" y="367.5" width="573.4" height="24.65" shape-rendering="crispEdges"/><rect fill="#3e3834" x="927.2" y="367.5" width="24.4" height="24.65" shape-rendering="crispEdges"/><rect fill="#181818" x="951.6" y="367.5" width="24.4" height="24.65" shape-rendering="crispEdges"/><rect fill="#3e3834" x="0" y="391.9" width="24.4" height="24.65" shape-rendering="crispEdges"/><rect fill="#3e3834" x="24.4" y="391.9" width="207.4" height="24.65" shape-rendering="crispEdges"/><rect fill="#3e3834" x="231.8" y="391.9" width="695.4" height="24.65" shape-rendering="crispEdges"/><rect fill="#3e3834" x="927.2" y="391.9" width="24.4" height="24.65" shape-rendering="crispEdges"/><rect fill="#181818" x="951.6" y="391.9" width="24.4" height="24.65" shape-rendering="crispEdges"/><rect fill="#3e3834" x="0" y="416.3" width="24.4" height="24.65" shape-rendering="crispEdges"/><rect fill="#3e3834" x="24.4" y="416.3" width="366" height="24.65" shape-rendering="crispEdges"/><rect fill="#3e3834" x="390.4" y="416.3" width="536.8" height="24.65" shape-rendering="crispEdges"/><rect fill="#3e3834" x="927.2" y="416.3" width="24.4" height="24.65" shape-rendering="crispEdges"/><rect fill="#181818" x="951.6" y="416.3" width="24.4" height="24.65" shape-rendering="crispEdges"/><rect fill="#3e3834" x="0" y="440.7" width="24.4" height="24.65" shape-rendering="crispEdges"/><rect fill="#3e3834" x="24.4" y="440.7" width="195.2" height="24.65" shape-rendering="crispEdges"/><rect fill="#3e3834" x="219.6" y="440.7" width="707.6" height="24.65" shape-rendering="crispEdges"/><rect fill="#3e3834" x="927.2" y="440.7" width="24.4" height="24.65" shape-rendering="crispEdges"/><rect fill="#181818" x="951.6" y="440.7" width="24.4" height="24.65" shape-rendering="crispEdges"/><rect fill="#3e3834" x="0" y="465.1" width="24.4" height="24.65" shape-rendering="crispEdges"/><rect fill="#3e3834" x="24.4" y="465.1" width="353.8" height="24.65" shape-rendering="crispEdges"/><rect fill="#3e3834" x="378.2" y="465.1" width="549" height="24.65" shape-rendering="crispEdges"/><rect fill="#3e3834" x="927.2" y="465.1" width="24.4" height="24.65" shape-rendering="crispEdges"/><rect fill="#181818" x="951.6" y="465.1" width="24.4" height="24.65" shape-rendering="crispEdges"/><rect fill="#3e3834" x="0" y="489.5" width="24.4" height="24.65" shape-rendering="crispEdges"/><rect fill="#3e3834" x="24.4" y="489.5" width="244" height="24.65" shape-rendering="crispEdges"/><rect fill="#3e3834" x="268.4" y="489.5" width="658.8" height="24.65" shape-rendering="crispEdges"/><rect fill="#3e3834" x="927.2" y="489.5" width="24.4" height="24.65" shape-rendering="crispEdges"/><rect fill="#181818" x="951.6" y="489.5" width="24.4" height="24.65" shape-rendering="crispEdges"/><rect fill="#3e3834" x="0" y="513.9" width="24.4" height="24.65" shape-rendering="crispEdges"/><rect fill="#3e3834" x="24.4" y="513.9" width="402.6" height="24.65" shape-rendering="crispEdges"/><rect fill="#3e3834" x="427" y="513.9" width="500.2" height="24.65" shape-rendering="crispEdges"/><rect fill="#3e3834" x="927.2" y="513.9" width="24.4" height="24.65" shape-rendering="crispEdges"/><rect fill="#181818" x="951.6" y="513.9" width="24.4" height="24.65" shape-rendering="crispEdges"/><rect fill="#3e3834" x="0" y="538.3" width="976" height="24.65" shape-rendering="crispEdges"/><rect fill="#383533" x="0" y="562.7" width="48.8" height="24.65" shape-rendering="crispEdges"/><rect fill="#383533" x="48.8" y="562.7" width="61" height="24.65" shape-rendering="crispEdges"/><rect fill="#383533" x="109.8" y="562.7" width="48.8" height="24.65" shape-rendering="crispEdges"/><rect fill="#383533" x="158.6" y="562.7" width="170.8" height="24.65" shape-rendering="crispEdges"/><rect fill="#383533" x="329.4" y="562.7" width="48.8" height="24.65" shape-rendering="crispEdges"/><rect fill="#383533" x="378.2" y="562.7" width="61" height="24.65" shape-rendering="crispEdges"/><rect fill="#383533" x="439.2" y="562.7" width="48.8" height="24.65" shape-rendering="crispEdges"/><rect fill="#383533" x="488" y="562.7" width="73.2" height="24.65" shape-rendering="crispEdges"/><rect fill="#383533" x="561.2" y="562.7" width="48.8" height="24.65" shape-rendering="crispEdges"/><rect fill="#383533" x="610" y="562.7" width="97.6" height="24.65" shape-rendering="crispEdges"/><rect fill="#383533" x="707.6" y="562.7" width="48.8" height="24.65" shape-rendering="crispEdges"/><rect fill="#383533" x="756.4" y="562.7" width="73.2" height="24.65" shape-rendering="crispEdges"/><rect fill="#383533" x="829.6" y="562.7" width="12.2" height="24.65" shape-rendering="crispEdges"/><rect fill="#383533" x="841.8" y="562.7" width="24.4" height="24.65" shape-rendering="crispEdges"/><rect fill="#383533" x="866.2" y="562.7" width="97.6" height="24.65" shape-rendering="crispEdges"/><rect fill="#383533" x="963.8" y="562.7" width="12.2" height="24.65" shape-rendering="crispEdges"/>
    <g class="terminal-1598979857-matrix">
    <text class="terminal-1598979857-r2" x="12.2" y="20" textLength="12.2" clip-path="url(#terminal-1598979857-line-0)">⭘</text><text class="terminal-1598979857-r2" x="317.2" y="20" textLength="207.4" clip-path="url(#terminal-1598979857-line-0)">agent-toolkit-tui</text><text class="terminal-1598979857-r3" x="524.6" y="20" textLength="36.6" clip-path="url(#terminal-1598979857-line-0)">&#160;—&#160;</text><text class="terminal-1598979857-r3" x="561.2" y="20" textLength="73.2" clip-path="url(#terminal-1598979857-line-0)">v5.6.0</text><text class="terminal-1598979857-r4" x="976" y="20" textLength="12.2" clip-path="url(#terminal-1598979857-line-0)">
</text><text class="terminal-1598979857-r5" x="280.6" y="44.4" textLength="12.2" clip-path="url(#terminal-1598979857-line-1)">▎</text><text class="terminal-1598979857-r4" x="976" y="44.4" textLength="12.2" clip-path="url(#terminal-1598979857-line-1)">
</text><text class="terminal-1598979857-r6" x="24.4" y="68.8" textLength="134.2" clip-path="url(#terminal-1598979857-line-2)">Asset&#160;Types</text><text class="terminal-1598979857-r5" x="280.6" y="68.8" textLength="12.2" clip-path="url(#terminal-1598979857-line-2)">▎</text><text class="terminal-1598979857-r8" x="353.8" y="68.8" textLength="73.2" clip-path="url(#terminal-1598979857-line-2)">Skills</text><text class="terminal-1598979857-r9" x="463.6" y="68.8" textLength="12.2" clip-path="url(#terminal-1598979857-line-2)">·</text><text class="terminal-1598979857-r7" x="475.8" y="68.8" textLength="61" clip-path="url(#terminal-1598979857-line-2)">&#160;&#160;&#160;99</text><text class="terminal-1598979857-r10" x="622.2" y="68.8" textLength="73.2" clip-path="url(#terminal-1598979857-line-2)">scope:</text><text class="terminal-1598979857-r5" x="707.6" y="68.8" textLength="12.2" clip-path="url(#terminal-1598979857-line-2)">▏</text><text class="terminal-1598979857-r11" x="732" y="68.8" textLength="85.4" clip-path="url(#terminal-1598979857-line-2)">project</text><text class="terminal-1598979857-r5" x="829.6" y="68.8" textLength="12.2" clip-path="url(#terminal-1598979857-line-2)">▏</text><text class="terminal-1598979857-r7" x="854" y="68.8" textLength="73.2" clip-path="url(#terminal-1598979857-line-2)">global</text><text class="terminal-1598979857-r4" x="976" y="68.8" textLength="12.2" clip-path="url(#terminal-1598979857-line-2)">
</text><text class="terminal-1598979857-r12" x="0" y="93.2" textLength="12.2" clip-path="url(#terminal-1598979857-line-3)">▔</text><text class="terminal-1598979857-r12" x="12.2" y="93.2" textLength="951.6" clip-path="url(#terminal-1598979857-line-3)">▔▔▔▔▔▔▔▔▔▔▔▔▔▔▔▔▔▔▔▔▔▔▔▔▔▔▔▔▔▔▔▔▔▔▔▔▔▔▔▔▔▔▔▔▔▔▔▔▔▔▔▔▔▔▔▔▔▔▔▔▔▔▔▔▔▔▔▔▔▔▔▔▔▔▔▔▔▔</text><text class="terminal-1598979857-r12" x="963.8" y="93.2" textLength="12.2" clip-path="url(#terminal-1598979857-line-3)">▔</text><text class="terminal-1598979857-r4" x="976" y="93.2" textLength="12.2" clip-path="url(#terminal-1598979857-line-3)">
</text><text class="terminal-1598979857-r4" x="976" y="117.6" textLength="12.2" clip-path="url(#terminal-1598979857-line-4)">
</text><text class="terminal-1598979857-r14" x="24.4" y="142" textLength="12.2" clip-path="url(#terminal-1598979857-line-5)">🔎</text><text class="terminal-1598979857-r15" x="61" y="142" textLength="12.2" clip-path="url(#terminal-1598979857-line-5)">S</text><text class="terminal-1598979857-r16" x="73.2" y="142" textLength="207.4" clip-path="url(#terminal-1598979857-line-5)">earch&#160;for&#160;themes…</text><text class="terminal-1598979857-r4" x="976" y="142" textLength="12.2" clip-path="url(#terminal-1598979857-line-5)">
</text><text class="terminal-1598979857-r4" x="976" y="166.4" textLength="12.2" clip-path="url(#terminal-1598979857-line-6)">
</text><text class="terminal-1598979857-r4" x="976" y="190.8" textLength="12.2" clip-path="url(#terminal-1598979857-line-7)">
</text><text class="terminal-1598979857-r17" x="24.4" y="215.2" textLength="109.8" clip-path="url(#terminal-1598979857-line-8)">ansi-dark</text><text class="terminal-1598979857-r4" x="976" y="215.2" textLength="12.2" clip-path="url(#terminal-1598979857-line-8)">
</text><text class="terminal-1598979857-r19" x="24.4" y="239.6" textLength="268.4" clip-path="url(#terminal-1598979857-line-9)">Set&#160;theme&#160;to&#160;ansi-dark</text><text class="terminal-1598979857-r4" x="976" y="239.6" textLength="12.2" clip-path="url(#terminal-1598979857-line-9)">
</text><text class="terminal-1598979857-r17" x="24.4" y="264" textLength="122" clip-path="url(#terminal-1598979857-line-10)">ansi-light</text><text class="terminal-1598979857-r4" x="976" y="264" textLength="12.2" clip-path="url(#terminal-1598979857-line-10)">
</text><text class="terminal-1598979857-r20" x="24.4" y="288.4" textLength="280.6" clip-path="url(#terminal-1598979857-line-11)">Set&#160;theme&#160;to&#160;ansi-light</text><text class="terminal-1598979857-r4" x="976" y="288.4" textLength="12.2" clip-path="url(#terminal-1598979857-line-11)">
</text><text class="terminal-1598979857-r17" x="24.4" y="312.8" textLength="158.6" clip-path="url(#terminal-1598979857-line-12)">atom-one-dark</text><text class="terminal-1598979857-r21" x="951.6" y="312.8" textLength="24.4" clip-path="url(#terminal-1598979857-line-12)">▂▂</text><text class="terminal-1598979857-r4" x="976" y="312.8" textLength="12.2" clip-path="url(#terminal-1598979857-line-12)">
</text><text class="terminal-1598979857-r20" x="24.4" y="337.2" textLength="317.2" clip-path="url(#terminal-1598979857-line-13)">Set&#160;theme&#160;to&#160;atom-one-dark</text><text class="terminal-1598979857-r4" x="976" y="337.2" textLength="12.2" clip-path="url(#terminal-1598979857-line-13)">
</text><text class="terminal-1598979857-r17" x="24.4" y="361.6" textLength="170.8" clip-path="url(#terminal-1598979857-line-14)">atom-one-light</text><text class="terminal-1598979857-r4" x="976" y="361.6" textLength="12.2" clip-path="url(#terminal-1598979857-line-14)">
</text><text class="terminal-1598979857-r20" x="24.4" y="386" textLength="329.4" clip-path="url(#terminal-1598979857-line-15)">Set&#160;theme&#160;to&#160;atom-one-light</text><text class="terminal-1598979857-r4" x="976" y="386" textLength="12.2" clip-path="url(#terminal-1598979857-line-15)">
</text><text class="terminal-1598979857-r17" x="24.4" y="410.4" textLength="207.4" clip-path="url(#terminal-1598979857-line-16)">catppuccin-frappe</text><text class="terminal-1598979857-r4" x="976" y="410.4" textLength="12.2" clip-path="url(#terminal-1598979857-line-16)">
</text><text class="terminal-1598979857-r20" x="24.4" y="434.8" textLength="366" clip-path="url(#terminal-1598979857-line-17)">Set&#160;theme&#160;to&#160;catppuccin-frappe</text><text class="terminal-1598979857-r4" x="976" y="434.8" textLength="12.2" clip-path="url(#terminal-1598979857-line-17)">
</text><text class="terminal-1598979857-r17" x="24.4" y="459.2" textLength="195.2" clip-path="url(#terminal-1598979857-line-18)">catppuccin-latte</text><text class="terminal-1598979857-r4" x="976" y="459.2" textLength="12.2" clip-path="url(#terminal-1598979857-line-18)">
</text><text class="terminal-1598979857-r20" x="24.4" y="483.6" textLength="353.8" clip-path="url(#terminal-1598979857-line-19)">Set&#160;theme&#160;to&#160;catppuccin-latte</text><text class="terminal-1598979857-r4" x="976" y="483.6" textLength="12.2" clip-path="url(#terminal-1598979857-line-19)">
</text><text class="terminal-1598979857-r17" x="24.4" y="508" textLength="244" clip-path="url(#terminal-1598979857-line-20)">catppuccin-macchiato</text><text class="terminal-1598979857-r4" x="976" y="508" textLength="12.2" clip-path="url(#terminal-1598979857-line-20)">
</text><text class="terminal-1598979857-r20" x="24.4" y="532.4" textLength="402.6" clip-path="url(#terminal-1598979857-line-21)">Set&#160;theme&#160;to&#160;catppuccin-macchiato</text><text class="terminal-1598979857-r4" x="976" y="532.4" textLength="12.2" clip-path="url(#terminal-1598979857-line-21)">
</text><text class="terminal-1598979857-r14" x="0" y="556.8" textLength="976" clip-path="url(#terminal-1598979857-line-22)">▁▁▁▁▁▁▁▁▁▁▁▁▁▁▁▁▁▁▁▁▁▁▁▁▁▁▁▁▁▁▁▁▁▁▁▁▁▁▁▁▁▁▁▁▁▁▁▁▁▁▁▁▁▁▁▁▁▁▁▁▁▁▁▁▁▁▁▁▁▁▁▁▁▁▁▁▁▁▁▁</text><text class="terminal-1598979857-r4" x="976" y="556.8" textLength="12.2" clip-path="url(#terminal-1598979857-line-22)">
</text><text class="terminal-1598979857-r22" x="0" y="581.2" textLength="48.8" clip-path="url(#terminal-1598979857-line-23)">&#160;^d&#160;</text><text class="terminal-1598979857-r2" x="48.8" y="581.2" textLength="61" clip-path="url(#terminal-1598979857-line-23)">Diff&#160;</text><text class="terminal-1598979857-r22" x="109.8" y="581.2" textLength="48.8" clip-path="url(#terminal-1598979857-line-23)">&#160;^w&#160;</text><text class="terminal-1598979857-r2" x="158.6" y="581.2" textLength="170.8" clip-path="url(#terminal-1598979857-line-23)">Focus&#160;Sidebar&#160;</text><text class="terminal-1598979857-r22" x="329.4" y="581.2" textLength="48.8" clip-path="url(#terminal-1598979857-line-23)">&#160;^c&#160;</text><text class="terminal-1598979857-r2" x="378.2" y="581.2" textLength="61" clip-path="url(#terminal-1598979857-line-23)">Quit&#160;</text><text class="terminal-1598979857-r22" x="439.2" y="581.2" textLength="48.8" clip-path="url(#terminal-1598979857-line-23)">&#160;^s&#160;</text><text class="terminal-1598979857-r2" x="488" y="581.2" textLength="73.2" clip-path="url(#terminal-1598979857-line-23)">Apply&#160;</text><text class="terminal-1598979857-r22" x="561.2" y="581.2" textLength="48.8" clip-path="url(#terminal-1598979857-line-23)">&#160;^r&#160;</text><text class="terminal-1598979857-r2" x="610" y="581.2" textLength="97.6" clip-path="url(#terminal-1598979857-line-23)">Refresh&#160;</text><text class="terminal-1598979857-r22" x="707.6" y="581.2" textLength="48.8" clip-path="url(#terminal-1598979857-line-23)">&#160;^z&#160;</text><text class="terminal-1598979857-r2" x="756.4" y="581.2" textLength="73.2" clip-path="url(#terminal-1598979857-line-23)">Revert</text><text class="terminal-1598979857-r23" x="829.6" y="581.2" textLength="12.2" clip-path="url(#terminal-1598979857-line-23)">▏</text><text class="terminal-1598979857-r22" x="841.8" y="581.2" textLength="24.4" clip-path="url(#terminal-1598979857-line-23)">^p</text><text class="terminal-1598979857-r2" x="866.2" y="581.2" textLength="97.6" clip-path="url(#terminal-1598979857-line-23)">&#160;palette</text>
    </g>
    </g>
</svg>
