<svg class="rich-terminal" viewBox="0 0 1726 635.5999999999999" xmlns="http://www.w3.org/2000/svg">
    <!-- Generated with Rich https://www.textualize.io -->
    <style>

    @font-face {
        font-family: "Fira Code";
        src: local("FiraCode-Regular"),
                url("https://cdnjs.cloudflare.com/ajax/libs/firacode/6.2.0/woff2/FiraCode-Regular.woff2") format("woff2"),
                url("https://cdnjs.cloudflare.com/ajax/libs/firacode/6.2.0/woff/FiraCode-Regular.woff") format("woff");
        font-style: normal;
        font-weight: 400;
    }
    @font-face {
        font-family: "Fira Code";
        src: local("FiraCode-Bold"),
                url("https://cdnjs.cloudflare.com/ajax/libs/firacode/6.2.0/woff2/FiraCode-Bold.woff2") format("woff2"),
                url("https://cdnjs.cloudflare.com/ajax/libs/firacode/6.2.0/woff/FiraCode-Bold.woff") format("woff");
        font-style: bold;
        font-weight: 700;
    }

    .terminal-176699007-matrix {
        font-family: Fira Code, monospace;
        font-size: 20px;
        line-height: 24.4px;
        font-variant-east-asian: full-width;
    }

    .terminal-176699007-title {
        font-size: 18px;
        font-weight: bold;
        font-family: arial;
    }

    .terminal-176699007-r1 { fill: #c5c8c6 }
.terminal-176699007-r2 { fill: #0178d4 }
.terminal-176699007-r3 { fill: #121212 }
.terminal-176699007-r4 { fill: #797979 }
.terminal-176699007-r5 { fill: #e0e0e0 }
.terminal-176699007-r6 { fill: #e0e0e0;font-weight: bold }
.terminal-176699007-r7 { fill: #98e024 }
.terminal-176699007-r8 { fill: #1e1e1e }
.terminal-176699007-r9 { fill: #003054 }
    </style>

    <defs>
    <clipPath id="terminal-176699007-clip-terminal">
      <rect x="0" y="0" width="1707.0" height="584.5999999999999" />
    </clipPath>
    <clipPath id="terminal-176699007-line-0">
    <rect x="0" y="1.5" width="1708" height="24.65"/>
            </clipPath>
<clipPath id="terminal-176699007-line-1">
    <rect x="0" y="25.9" width="1708" height="24.65"/>
            </clipPath>
<clipPath id="terminal-176699007-line-2">
    <rect x="0" y="50.3" width="1708" height="24.65"/>
            </clipPath>
<clipPath id="terminal-176699007-line-3">
    <rect x="0" y="74.7" width="1708" height="24.65"/>
            </clipPath>
<clipPath id="terminal-176699007-line-4">
    <rect x="0" y="99.1" width="1708" height="24.65"/>
            </clipPath>
<clipPath id="terminal-176699007-line-5">
    <rect x="0" y="123.5" width="1708" height="24.65"/>
            </clipPath>
<clipPath id="terminal-176699007-line-6">
    <rect x="0" y="147.9" width="1708" height="24.65"/>
            </clipPath>
<clipPath id="terminal-176699007-line-7">
    <rect x="0" y="172.3" width="1708" height="24.65"/>
            </clipPath>
<clipPath id="terminal-176699007-line-8">
    <rect x="0" y="196.7" width="1708" height="24.65"/>
            </clipPath>
<clipPath id="terminal-176699007-line-9">
    <rect x="0" y="221.1" width="1708" height="24.65"/>
            </clipPath>
<clipPath id="terminal-176699007-line-10">
    <rect x="0" y="245.5" width="1708" height="24.65"/>
            </clipPath>
<clipPath id="terminal-176699007-line-11">
    <rect x="0" y="269.9" width="1708" height="24.65"/>
            </clipPath>
<clipPath id="terminal-176699007-line-12">
    <rect x="0" y="294.3" width="1708" height="24.65"/>
            </clipPath>
<clipPath id="terminal-176699007-line-13">
    <rect x="0" y="318.7" width="1708" height="24.65"/>
            </clipPath>
<clipPath id="terminal-176699007-line-14">
    <rect x="0" y="343.1" width="1708" height="24.65"/>
            </clipPath>
<clipPath id="terminal-176699007-line-15">
    <rect x="0" y="367.5" width="1708" height="24.65"/>
            </clipPath>
<clipPath id="terminal-176699007-line-16">
    <rect x="0" y="391.9" width="1708" height="24.65"/>
            </clipPath>
<clipPath id="terminal-176699007-line-17">
    <rect x="0" y="416.3" width="1708" height="24.65"/>
            </clipPath>
<clipPath id="terminal-176699007-line-18">
    <rect x="0" y="440.7" width="1708" height="24.65"/>
            </clipPath>
<clipPath id="terminal-176699007-line-19">
    <rect x="0" y="465.1" width="1708" height="24.65"/>
            </clipPath>
<clipPath id="terminal-176699007-line-20">
    <rect x="0" y="489.5" width="1708" height="24.65"/>
            </clipPath>
<clipPath id="terminal-176699007-line-21">
    <rect x="0" y="513.9" width="1708" height="24.65"/>
            </clipPath>
<clipPath id="terminal-176699007-line-22">
    <rect x="0" y="538.3" width="1708" height="24.65"/>
            </clipPath>
    </defs>

    <rect fill="#292929" stroke="rgba(255,255,255,0.35)" stroke-width="1" x="1" y="1" width="1724" height="633.6" rx="8"/><text class="terminal-176699007-title" fill="#c5c8c6" text-anchor="middle" x="862" y="27">Hermes&#160;Skills&#160;grid</text>
            <g transform="translate(26,22)">
            <circle cx="0" cy="0" r="7" fill="#ff5f57"/>
            <circle cx="22" cy="0" r="7" fill="#febc2e"/>
            <circle cx="44" cy="0" r="7" fill="#28c840"/>
            </g>

    <g transform="translate(9, 41)" clip-path="url(#terminal-176699007-clip-terminal)">
    <rect fill="#121212" x="0" y="1.5" width="1708" height="24.65" shape-rendering="crispEdges"/><rect fill="#121212" x="0" y="25.9" width="1708" height="24.65" shape-rendering="crispEdges"/><rect fill="#121212" x="0" y="50.3" width="1708" height="24.65" shape-rendering="crispEdges"/><rect fill="#121212" x="0" y="74.7" width="1708" height="24.65" shape-rendering="crispEdges"/><rect fill="#121212" x="0" y="99.1" width="1708" height="24.65" shape-rendering="crispEdges"/><rect fill="#121212" x="0" y="123.5" width="1708" height="24.65" shape-rendering="crispEdges"/><rect fill="#121212" x="0" y="147.9" width="122" height="24.65" shape-rendering="crispEdges"/><rect fill="#121212" x="122" y="147.9" width="1464" height="24.65" shape-rendering="crispEdges"/><rect fill="#121212" x="1586" y="147.9" width="122" height="24.65" shape-rendering="crispEdges"/><rect fill="#121212" x="0" y="172.3" width="122" height="24.65" shape-rendering="crispEdges"/><rect fill="#121212" x="122" y="172.3" width="12.2" height="24.65" shape-rendering="crispEdges"/><rect fill="#0178d4" x="134.2" y="172.3" width="12.2" height="24.65" shape-rendering="crispEdges"/><rect fill="#272727" x="146.4" y="172.3" width="1415.2" height="24.65" shape-rendering="crispEdges"/><rect fill="#121212" x="1561.6" y="172.3" width="24.4" height="24.65" shape-rendering="crispEdges"/><rect fill="#121212" x="1586" y="172.3" width="122" height="24.65" shape-rendering="crispEdges"/><rect fill="#121212" x="0" y="196.7" width="122" height="24.65" shape-rendering="crispEdges"/><rect fill="#121212" x="122" y="196.7" width="12.2" height="24.65" shape-rendering="crispEdges"/><rect fill="#0178d4" x="134.2" y="196.7" width="12.2" height="24.65" shape-rendering="crispEdges"/><rect fill="#272727" x="146.4" y="196.7" width="24.4" height="24.65" shape-rendering="crispEdges"/><rect fill="#e0e0e0" x="170.8" y="196.7" width="12.2" height="24.65" shape-rendering="crispEdges"/><rect fill="#272727" x="183" y="196.7" width="73.2" height="24.65" shape-rendering="crispEdges"/><rect fill="#272727" x="256.2" y="196.7" width="1281" height="24.65" shape-rendering="crispEdges"/><rect fill="#272727" x="1537.2" y="196.7" width="24.4" height="24.65" shape-rendering="crispEdges"/><rect fill="#121212" x="1561.6" y="196.7" width="24.4" height="24.65" shape-rendering="crispEdges"/><rect fill="#121212" x="1586" y="196.7" width="122" height="24.65" shape-rendering="crispEdges"/><rect fill="#121212" x="0" y="221.1" width="122" height="24.65" shape-rendering="crispEdges"/><rect fill="#121212" x="122" y="221.1" width="12.2" height="24.65" shape-rendering="crispEdges"/><rect fill="#0178d4" x="134.2" y="221.1" width="12.2" height="24.65" shape-rendering="crispEdges"/><rect fill="#272727" x="146.4" y="221.1" width="1415.2" height="24.65" shape-rendering="crispEdges"/><rect fill="#121212" x="1561.6" y="221.1" width="24.4" height="24.65" shape-rendering="crispEdges"/><rect fill="#121212" x="1586" y="221.1" width="122" height="24.65" shape-rendering="crispEdges"/><rect fill="#121212" x="0" y="245.5" width="122" height="24.65" shape-rendering="crispEdges"/><rect fill="#121212" x="122" y="245.5" width="12.2" height="24.65" shape-rendering="crispEdges"/><rect fill="#242f38" x="134.2" y="245.5" width="268.4" height="24.65" shape-rendering="crispEdges"/><rect fill="#242f38" x="402.6" y="245.5" width="195.2" height="24.65" shape-rendering="crispEdges"/><rect fill="#242f38" x="597.8" y="245.5" width="195.2" height="24.65" shape-rendering="crispEdges"/><rect fill="#242f38" x="793" y="245.5" width="195.2" height="24.65" shape-rendering="crispEdges"/><rect fill="#242f38" x="988.2" y="245.5" width="195.2" height="24.65" shape-rendering="crispEdges"/><rect fill="#242f38" x="1183.4" y="245.5" width="146.4" height="24.65" shape-rendering="crispEdges"/><rect fill="#242f38" x="1329.8" y="245.5" width="244" height="24.65" shape-rendering="crispEdges"/><rect fill="#121212" x="1573.8" y="245.5" width="12.2" height="24.65" shape-rendering="crispEdges"/><rect fill="#121212" x="1586" y="245.5" width="122" height="24.65" shape-rendering="crispEdges"/><rect fill="#121212" x="0" y="269.9" width="122" height="24.65" shape-rendering="crispEdges"/><rect fill="#121212" x="122" y="269.9" width="12.2" height="24.65" shape-rendering="crispEdges"/><rect fill="#153854" x="134.2" y="269.9" width="268.4" height="24.65" shape-rendering="crispEdges"/><rect fill="#171717" x="402.6" y="269.9" width="195.2" height="24.65" shape-rendering="crispEdges"/><rect fill="#171717" x="597.8" y="269.9" width="195.2" height="24.65" shape-rendering="crispEdges"/><rect fill="#171717" x="793" y="269.9" width="195.2" height="24.65" shape-rendering="crispEdges"/><rect fill="#171717" x="988.2" y="269.9" width="195.2" height="24.65" shape-rendering="crispEdges"/><rect fill="#171717" x="1183.4" y="269.9" width="12.2" height="24.65" shape-rendering="crispEdges"/><rect fill="#171717" x="1195.6" y="269.9" width="61" height="24.65" shape-rendering="crispEdges"/><rect fill="#171717" x="1256.6" y="269.9" width="73.2" height="24.65" shape-rendering="crispEdges"/><rect fill="#171717" x="1329.8" y="269.9" width="244" height="24.65" shape-rendering="crispEdges"/><rect fill="#121212" x="1573.8" y="269.9" width="12.2" height="24.65" shape-rendering="crispEdges"/><rect fill="#121212" x="1586" y="269.9" width="122" height="24.65" shape-rendering="crispEdges"/><rect fill="#121212" x="0" y="294.3" width="122" height="24.65" shape-rendering="crispEdges"/><rect fill="#121212" x="122" y="294.3" width="12.2" height="24.65" shape-rendering="crispEdges"/><rect fill="#1e1e1e" x="134.2" y="294.3" width="1439.6" height="24.65" shape-rendering="crispEdges"/><rect fill="#121212" x="1573.8" y="294.3" width="12.2" height="24.65" shape-rendering="crispEdges"/><rect fill="#121212" x="1586" y="294.3" width="122" height="24.65" shape-rendering="crispEdges"/><rect fill="#121212" x="0" y="318.7" width="122" height="24.65" shape-rendering="crispEdges"/><rect fill="#121212" x="122" y="318.7" width="12.2" height="24.65" shape-rendering="crispEdges"/><rect fill="#1e1e1e" x="134.2" y="318.7" width="1439.6" height="24.65" shape-rendering="crispEdges"/><rect fill="#121212" x="1573.8" y="318.7" width="12.2" height="24.65" shape-rendering="crispEdges"/><rect fill="#121212" x="1586" y="318.7" width="122" height="24.65" shape-rendering="crispEdges"/><rect fill="#121212" x="0" y="343.1" width="122" height="24.65" shape-rendering="crispEdges"/><rect fill="#121212" x="122" y="343.1" width="12.2" height="24.65" shape-rendering="crispEdges"/><rect fill="#1e1e1e" x="134.2" y="343.1" width="1439.6" height="24.65" shape-rendering="crispEdges"/><rect fill="#121212" x="1573.8" y="343.1" width="12.2" height="24.65" shape-rendering="crispEdges"/><rect fill="#121212" x="1586" y="343.1" width="122" height="24.65" shape-rendering="crispEdges"/><rect fill="#121212" x="0" y="367.5" width="122" height="24.65" shape-rendering="crispEdges"/><rect fill="#121212" x="122" y="367.5" width="12.2" height="24.65" shape-rendering="crispEdges"/><rect fill="#1e1e1e" x="134.2" y="367.5" width="1439.6" height="24.65" shape-rendering="crispEdges"/><rect fill="#121212" x="1573.8" y="367.5" width="12.2" height="24.65" shape-rendering="crispEdges"/><rect fill="#121212" x="1586" y="367.5" width="122" height="24.65" shape-rendering="crispEdges"/><rect fill="#121212" x="0" y="391.9" width="122" height="24.65" shape-rendering="crispEdges"/><rect fill="#121212" x="122" y="391.9" width="12.2" height="24.65" shape-rendering="crispEdges"/><rect fill="#003054" x="134.2" y="391.9" width="1305.4" height="24.65" shape-rendering="crispEdges"/><rect fill="#000000" x="1439.6" y="391.9" width="12.2" height="24.65" shape-rendering="crispEdges"/><rect fill="#000000" x="1451.8" y="391.9" width="122" height="24.65" shape-rendering="crispEdges"/><rect fill="#121212" x="1573.8" y="391.9" width="12.2" height="24.65" shape-rendering="crispEdges"/><rect fill="#121212" x="1586" y="391.9" width="122" height="24.65" shape-rendering="crispEdges"/><rect fill="#121212" x="0" y="416.3" width="122" height="24.65" shape-rendering="crispEdges"/><rect fill="#121212" x="122" y="416.3" width="1464" height="24.65" shape-rendering="crispEdges"/><rect fill="#121212" x="1586" y="416.3" width="122" height="24.65" shape-rendering="crispEdges"/><rect fill="#121212" x="0" y="440.7" width="1708" height="24.65" shape-rendering="crispEdges"/><rect fill="#121212" x="0" y="465.1" width="1708" height="24.65" shape-rendering="crispEdges"/><rect fill="#121212" x="0" y="489.5" width="1708" height="24.65" shape-rendering="crispEdges"/><rect fill="#121212" x="0" y="513.9" width="1708" height="24.65" shape-rendering="crispEdges"/><rect fill="#121212" x="0" y="538.3" width="1708" height="24.65" shape-rendering="crispEdges"/><rect fill="#121212" x="0" y="562.7" width="1708" height="24.65" shape-rendering="crispEdges"/>
    <g class="terminal-176699007-matrix">
    <text class="terminal-176699007-r1" x="1708" y="20" textLength="12.2" clip-path="url(#terminal-176699007-line-0)">
</text><text class="terminal-176699007-r1" x="1708" y="44.4" textLength="12.2" clip-path="url(#terminal-176699007-line-1)">
</text><text class="terminal-176699007-r1" x="1708" y="68.8" textLength="12.2" clip-path="url(#terminal-176699007-line-2)">
</text><text class="terminal-176699007-r1" x="1708" y="93.2" textLength="12.2" clip-path="url(#terminal-176699007-line-3)">
</text><text class="terminal-176699007-r1" x="1708" y="117.6" textLength="12.2" clip-path="url(#terminal-176699007-line-4)">
</text><text class="terminal-176699007-r1" x="1708" y="142" textLength="12.2" clip-path="url(#terminal-176699007-line-5)">
</text><text class="terminal-176699007-r2" x="122" y="166.4" textLength="1464" clip-path="url(#terminal-176699007-line-6)">╭──────────────────────────────────────────────────────────────────────────────────────────────────────────────────────╮</text><text class="terminal-176699007-r1" x="1708" y="166.4" textLength="12.2" clip-path="url(#terminal-176699007-line-6)">
</text><text class="terminal-176699007-r2" x="122" y="190.8" textLength="12.2" clip-path="url(#terminal-176699007-line-7)">│</text><text class="terminal-176699007-r3" x="134.2" y="190.8" textLength="12.2" clip-path="url(#terminal-176699007-line-7)">▊</text><text class="terminal-176699007-r2" x="146.4" y="190.8" textLength="1415.2" clip-path="url(#terminal-176699007-line-7)">▔▔▔▔▔▔▔▔▔▔▔▔▔▔▔▔▔▔▔▔▔▔▔▔▔▔▔▔▔▔▔▔▔▔▔▔▔▔▔▔▔▔▔▔▔▔▔▔▔▔▔▔▔▔▔▔▔▔▔▔▔▔▔▔▔▔▔▔▔▔▔▔▔▔▔▔▔▔▔▔▔▔▔▔▔▔▔▔▔▔▔▔▔▔▔▔▔▔▔▔▔▔▔▔▔▔▔▔▔▔▔▔▔▔▔▔</text><text class="terminal-176699007-r2" x="1561.6" y="190.8" textLength="24.4" clip-path="url(#terminal-176699007-line-7)">▎│</text><text class="terminal-176699007-r1" x="1708" y="190.8" textLength="12.2" clip-path="url(#terminal-176699007-line-7)">
</text><text class="terminal-176699007-r2" x="122" y="215.2" textLength="12.2" clip-path="url(#terminal-176699007-line-8)">│</text><text class="terminal-176699007-r3" x="134.2" y="215.2" textLength="12.2" clip-path="url(#terminal-176699007-line-8)">▊</text><text class="terminal-176699007-r3" x="170.8" y="215.2" textLength="12.2" clip-path="url(#terminal-176699007-line-8)">f</text><text class="terminal-176699007-r4" x="183" y="215.2" textLength="73.2" clip-path="url(#terminal-176699007-line-8)">ilter…</text><text class="terminal-176699007-r2" x="1561.6" y="215.2" textLength="24.4" clip-path="url(#terminal-176699007-line-8)">▎│</text><text class="terminal-176699007-r1" x="1708" y="215.2" textLength="12.2" clip-path="url(#terminal-176699007-line-8)">
</text><text class="terminal-176699007-r2" x="122" y="239.6" textLength="12.2" clip-path="url(#terminal-176699007-line-9)">│</text><text class="terminal-176699007-r3" x="134.2" y="239.6" textLength="12.2" clip-path="url(#terminal-176699007-line-9)">▊</text><text class="terminal-176699007-r2" x="146.4" y="239.6" textLength="1415.2" clip-path="url(#terminal-176699007-line-9)">▁▁▁▁▁▁▁▁▁▁▁▁▁▁▁▁▁▁▁▁▁▁▁▁▁▁▁▁▁▁▁▁▁▁▁▁▁▁▁▁▁▁▁▁▁▁▁▁▁▁▁▁▁▁▁▁▁▁▁▁▁▁▁▁▁▁▁▁▁▁▁▁▁▁▁▁▁▁▁▁▁▁▁▁▁▁▁▁▁▁▁▁▁▁▁▁▁▁▁▁▁▁▁▁▁▁▁▁▁▁▁▁▁▁▁▁</text><text class="terminal-176699007-r2" x="1561.6" y="239.6" textLength="24.4" clip-path="url(#terminal-176699007-line-9)">▎│</text><text class="terminal-176699007-r1" x="1708" y="239.6" textLength="12.2" clip-path="url(#terminal-176699007-line-9)">
</text><text class="terminal-176699007-r2" x="122" y="264" textLength="12.2" clip-path="url(#terminal-176699007-line-10)">│</text><text class="terminal-176699007-r6" x="134.2" y="264" textLength="268.4" clip-path="url(#terminal-176699007-line-10)">&#160;Skill&#160;ⓘ&#160;&#160;&#160;&#160;&#160;&#160;&#160;&#160;&#160;&#160;&#160;&#160;&#160;&#160;</text><text class="terminal-176699007-r6" x="402.6" y="264" textLength="195.2" clip-path="url(#terminal-176699007-line-10)">&#160;Standard&#160;(13)&#160;&#160;</text><text class="terminal-176699007-r6" x="597.8" y="264" textLength="195.2" clip-path="url(#terminal-176699007-line-10)">&#160;Claude&#160;ⓘ&#160;&#160;&#160;&#160;&#160;&#160;&#160;</text><text class="terminal-176699007-r6" x="793" y="264" textLength="195.2" clip-path="url(#terminal-176699007-line-10)">&#160;Pi&#160;ⓘ&#160;&#160;&#160;&#160;&#160;&#160;&#160;&#160;&#160;&#160;&#160;</text><text class="terminal-176699007-r6" x="988.2" y="264" textLength="195.2" clip-path="url(#terminal-176699007-line-10)">&#160;Hermes&#160;ⓘ&#160;&#160;&#160;&#160;&#160;&#160;&#160;</text><text class="terminal-176699007-r6" x="1183.4" y="264" textLength="146.4" clip-path="url(#terminal-176699007-line-10)">&#160;State&#160;ⓘ&#160;&#160;&#160;&#160;</text><text class="terminal-176699007-r6" x="1329.8" y="264" textLength="244" clip-path="url(#terminal-176699007-line-10)">&#160;Source&#160;&#160;&#160;&#160;&#160;&#160;&#160;&#160;&#160;&#160;&#160;&#160;&#160;</text><text class="terminal-176699007-r2" x="1573.8" y="264" textLength="12.2" clip-path="url(#terminal-176699007-line-10)">│</text><text class="terminal-176699007-r1" x="1708" y="264" textLength="12.2" clip-path="url(#terminal-176699007-line-10)">
</text><text class="terminal-176699007-r2" x="122" y="288.4" textLength="12.2" clip-path="url(#terminal-176699007-line-11)">│</text><text class="terminal-176699007-r5" x="134.2" y="288.4" textLength="268.4" clip-path="url(#terminal-176699007-line-11)">&#160;demo-skill&#160;&#160;&#160;&#160;&#160;&#160;&#160;&#160;&#160;&#160;&#160;</text><text class="terminal-176699007-r5" x="402.6" y="288.4" textLength="195.2" clip-path="url(#terminal-176699007-line-11)">&#160;☐&#160;&#160;&#160;&#160;&#160;&#160;&#160;&#160;&#160;&#160;&#160;&#160;&#160;&#160;</text><text class="terminal-176699007-r5" x="597.8" y="288.4" textLength="195.2" clip-path="url(#terminal-176699007-line-11)">&#160;☐&#160;&#160;&#160;&#160;&#160;&#160;&#160;&#160;&#160;&#160;&#160;&#160;&#160;&#160;</text><text class="terminal-176699007-r5" x="793" y="288.4" textLength="195.2" clip-path="url(#terminal-176699007-line-11)">&#160;☐&#160;&#160;&#160;&#160;&#160;&#160;&#160;&#160;&#160;&#160;&#160;&#160;&#160;&#160;</text><text class="terminal-176699007-r5" x="988.2" y="288.4" textLength="195.2" clip-path="url(#terminal-176699007-line-11)">&#160;☐&#160;&#160;&#160;&#160;&#160;&#160;&#160;&#160;&#160;&#160;&#160;&#160;&#160;&#160;</text><text class="terminal-176699007-r7" x="1195.6" y="288.4" textLength="61" clip-path="url(#terminal-176699007-line-11)">clean</text><text class="terminal-176699007-r5" x="1329.8" y="288.4" textLength="244" clip-path="url(#terminal-176699007-line-11)">&#160;demo/demo-skill&#160;&#160;&#160;&#160;</text><text class="terminal-176699007-r2" x="1573.8" y="288.4" textLength="12.2" clip-path="url(#terminal-176699007-line-11)">│</text><text class="terminal-176699007-r1" x="1708" y="288.4" textLength="12.2" clip-path="url(#terminal-176699007-line-11)">
</text><text class="terminal-176699007-r2" x="122" y="312.8" textLength="12.2" clip-path="url(#terminal-176699007-line-12)">│</text><text class="terminal-176699007-r2" x="1573.8" y="312.8" textLength="12.2" clip-path="url(#terminal-176699007-line-12)">│</text><text class="terminal-176699007-r1" x="1708" y="312.8" textLength="12.2" clip-path="url(#terminal-176699007-line-12)">
</text><text class="terminal-176699007-r2" x="122" y="337.2" textLength="12.2" clip-path="url(#terminal-176699007-line-13)">│</text><text class="terminal-176699007-r2" x="1573.8" y="337.2" textLength="12.2" clip-path="url(#terminal-176699007-line-13)">│</text><text class="terminal-176699007-r1" x="1708" y="337.2" textLength="12.2" clip-path="url(#terminal-176699007-line-13)">
</text><text class="terminal-176699007-r2" x="122" y="361.6" textLength="12.2" clip-path="url(#terminal-176699007-line-14)">│</text><text class="terminal-176699007-r2" x="1573.8" y="361.6" textLength="12.2" clip-path="url(#terminal-176699007-line-14)">│</text><text class="terminal-176699007-r1" x="1708" y="361.6" textLength="12.2" clip-path="url(#terminal-176699007-line-14)">
</text><text class="terminal-176699007-r2" x="122" y="386" textLength="12.2" clip-path="url(#terminal-176699007-line-15)">│</text><text class="terminal-176699007-r2" x="1573.8" y="386" textLength="12.2" clip-path="url(#terminal-176699007-line-15)">│</text><text class="terminal-176699007-r1" x="1708" y="386" textLength="12.2" clip-path="url(#terminal-176699007-line-15)">
</text><text class="terminal-176699007-r2" x="122" y="410.4" textLength="12.2" clip-path="url(#terminal-176699007-line-16)">│</text><text class="terminal-176699007-r9" x="1439.6" y="410.4" textLength="12.2" clip-path="url(#terminal-176699007-line-16)">▏</text><text class="terminal-176699007-r2" x="1573.8" y="410.4" textLength="12.2" clip-path="url(#terminal-176699007-line-16)">│</text><text class="terminal-176699007-r1" x="1708" y="410.4" textLength="12.2" clip-path="url(#terminal-176699007-line-16)">
</text><text class="terminal-176699007-r2" x="122" y="434.8" textLength="1464" clip-path="url(#terminal-176699007-line-17)">╰──────────────────────────────────────────────────────────────────────────────────────────────────────────────────────╯</text><text class="terminal-176699007-r1" x="1708" y="434.8" textLength="12.2" clip-path="url(#terminal-176699007-line-17)">
</text><text class="terminal-176699007-r1" x="1708" y="459.2" textLength="12.2" clip-path="url(#terminal-176699007-line-18)">
</text><text class="terminal-176699007-r1" x="1708" y="483.6" textLength="12.2" clip-path="url(#terminal-176699007-line-19)">
</text><text class="terminal-176699007-r1" x="1708" y="508" textLength="12.2" clip-path="url(#terminal-176699007-line-20)">
</text><text class="terminal-176699007-r1" x="1708" y="532.4" textLength="12.2" clip-path="url(#terminal-176699007-line-21)">
</text><text class="terminal-176699007-r1" x="1708" y="556.8" textLength="12.2" clip-path="url(#terminal-176699007-line-22)">
</text>
    </g>
    </g>
</svg>
